<svg width="93" height="93" viewBox="0 0 93 93" fill="none" xmlns="http://www.w3.org/2000/svg">
<path d="M5.8125 46.5C5.8125 57.291 10.0992 67.64 17.7296 75.2704C25.36 82.9008 35.709 87.1875 46.5 87.1875C57.291 87.1875 67.64 82.9008 75.2704 75.2704C82.9008 67.64 87.1875 57.291 87.1875 46.5C87.1875 35.709 82.9008 25.36 75.2704 17.7296C67.64 10.0992 57.291 5.8125 46.5 5.8125C35.709 5.8125 25.36 10.0992 17.7296 17.7296C10.0992 25.36 5.8125 35.709 5.8125 46.5ZM93 46.5C93 58.8326 88.1009 70.66 79.3805 79.3805C70.66 88.1009 58.8326 93 46.5 93C34.1674 93 22.34 88.1009 13.6195 79.3805C4.89909 70.66 0 58.8326 0 46.5C0 34.1674 4.89909 22.34 13.6195 13.6195C22.34 4.89909 34.1674 0 46.5 0C58.8326 0 70.66 4.89909 79.3805 13.6195C88.1009 22.34 93 34.1674 93 46.5ZM53.9574 23.2616V69.75H46.3314V31.0271H45.9536L35.2935 38.688V31.3003L46.3314 23.2616H53.9574Z" fill="#EDE4E1"/>
</svg>
