<svg width="92" height="92" viewBox="0 0 92 92" fill="none" xmlns="http://www.w3.org/2000/svg">
<path d="M5.75 46C5.75 56.675 9.99061 66.9127 17.539 74.461C25.0873 82.0094 35.325 86.25 46 86.25C56.675 86.25 66.9127 82.0094 74.461 74.461C82.0094 66.9127 86.25 56.675 86.25 46C86.25 35.325 82.0094 25.0873 74.461 17.539C66.9127 9.99061 56.675 5.75 46 5.75C35.325 5.75 25.0873 9.99061 17.539 17.539C9.99061 25.0873 5.75 35.325 5.75 46ZM92 46C92 58.2 87.1536 69.9002 78.5269 78.5269C69.9002 87.1536 58.2 92 46 92C33.8 92 22.0998 87.1536 13.4731 78.5269C4.84642 69.9002 0 58.2 0 46C0 33.8 4.84642 22.0998 13.4731 13.4731C22.0998 4.84642 33.8 0 46 0C58.2 0 69.9002 4.84642 78.5269 13.4731C87.1536 22.0998 92 33.8 92 46ZM38.2145 35.88V36.2825H30.9062V35.9145C30.9062 28.9397 35.9605 22.103 46.069 22.103C55.1655 22.103 61.0938 27.5597 61.0938 34.8392C61.0938 40.6007 57.6437 44.4245 53.6935 48.8118L53.1415 49.427L41.791 62.192V62.6347H61.9045V69H31.1765V64.216L48.254 45.2812C50.7495 42.55 53.4463 39.4853 53.4463 35.4775C53.4463 31.1995 50.2435 28.3705 45.8965 28.3705C41.0492 28.3705 38.2145 31.9067 38.2145 35.88Z" fill="#EDE4E1"/>
</svg>
