<svg width="93" height="93" viewBox="0 0 93 93" fill="none" xmlns="http://www.w3.org/2000/svg">
<path d="M46.0234 48.9063H40.9142V42.6753H45.7851C50.3188 42.6753 53.6203 39.6412 53.5855 35.4853C53.5855 31.3642 50.313 28.5393 45.7502 28.5393C41.1583 28.5393 38.1242 31.434 37.915 34.6715H30.661C30.8702 28.0627 36.1829 22.3781 45.9188 22.3432C55.1839 22.2735 61.0778 27.4873 61.2463 34.3286C61.38 40.9374 56.1023 44.6516 52.6322 45.227V45.6339C56.7184 46.0408 62.5716 49.3539 62.7111 56.7765C62.8506 65.2569 55.2885 70.7032 45.6805 70.7032C35.7702 70.7032 29.946 65.0825 29.6729 58.2412H36.7932C37.1361 61.7113 40.7457 64.4025 45.7502 64.4373C51.4058 64.4722 55.0502 61.1649 54.9805 56.5672C54.9456 52.0393 51.3709 48.9063 46.0234 48.9063Z" fill="#EDE4E1"/>
<path d="M93 46.5C93 58.8326 88.1009 70.66 79.3805 79.3805C70.66 88.1009 58.8326 93 46.5 93C34.1674 93 22.34 88.1009 13.6195 79.3805C4.89909 70.66 0 58.8326 0 46.5C0 34.1674 4.89909 22.34 13.6195 13.6195C22.34 4.89909 34.1674 0 46.5 0C58.8326 0 70.66 4.89909 79.3805 13.6195C88.1009 22.34 93 34.1674 93 46.5ZM5.8125 46.5C5.8125 57.291 10.0992 67.64 17.7296 75.2704C25.36 82.9008 35.709 87.1875 46.5 87.1875C57.291 87.1875 67.64 82.9008 75.2704 75.2704C82.9008 67.64 87.1875 57.291 87.1875 46.5C87.1875 35.709 82.9008 25.36 75.2704 17.7296C67.64 10.0992 57.291 5.8125 46.5 5.8125C35.709 5.8125 25.36 10.0992 17.7296 17.7296C10.0992 25.36 5.8125 35.709 5.8125 46.5Z" fill="#EDE4E1"/>
</svg>
