<svg width="335" height="188" viewBox="0 0 335 188" fill="none" xmlns="http://www.w3.org/2000/svg">
<g filter="url(#filter0_d_55_87)">
<path d="M275.5 127.5L274.599 125.715L275.5 127.5ZM4.65405 163.797C3.88679 164.592 3.90892 165.858 4.70348 166.625L17.6519 179.129C18.4465 179.896 19.7126 179.874 20.4799 179.079C21.2472 178.285 21.2251 177.019 20.4305 176.251L8.92075 165.137L20.035 153.627C20.8023 152.833 20.7802 151.567 19.9856 150.799C19.191 150.032 17.9249 150.054 17.1576 150.849L4.65405 163.797ZM328 0.999567C326.013 1.22836 326.013 1.22804 326.013 1.22808C326.013 1.22857 326.013 1.22897 326.013 1.22995C326.013 1.23191 326.014 1.2353 326.014 1.24011C326.015 1.24974 326.017 1.26504 326.019 1.28595C326.024 1.32777 326.031 1.39201 326.04 1.47807C326.058 1.65019 326.083 1.90958 326.115 2.25144C326.178 2.93521 326.262 3.94874 326.348 5.25377C326.519 7.86419 326.695 11.6388 326.71 16.272C326.739 25.544 326.124 38.225 323.553 51.8806C318.398 79.2548 305.473 110.128 274.599 125.715L276.401 129.285C308.909 112.874 322.234 80.4974 327.484 52.6208C330.114 38.651 330.74 25.7064 330.71 16.2592C330.695 11.5328 330.515 7.6744 330.339 4.9917C330.251 3.65017 330.164 2.60211 330.098 1.88594C330.065 1.52783 330.038 1.25266 330.018 1.06521C330.009 0.971487 330.001 0.899687 329.996 0.850417C329.993 0.825781 329.991 0.806778 329.989 0.793475C329.988 0.786826 329.988 0.781606 329.987 0.777821C329.987 0.775928 329.987 0.774165 329.987 0.773215C329.987 0.771815 329.987 0.770776 328 0.999567ZM274.599 125.715C257.953 134.118 232.895 140.704 204.503 145.832C176.157 150.951 144.662 154.588 115.247 157.161C85.8379 159.733 58.5363 161.24 38.5856 162.104C28.6111 162.535 20.4759 162.806 14.8357 162.969C12.0157 163.051 9.81956 163.105 8.32922 163.139C7.58405 163.156 7.01534 163.168 6.63336 163.176C6.44237 163.18 6.29807 163.182 6.2017 163.184C6.15354 163.185 6.11733 163.186 6.09332 163.186C6.08129 163.186 6.07232 163.187 6.06638 163.187C6.06342 163.187 6.06129 163.187 6.05981 163.187C6.05842 163.187 6.05782 163.187 6.09277 165.187C6.12772 167.186 6.12867 167.186 6.13036 167.186C6.13194 167.186 6.1344 167.186 6.13757 167.186C6.14394 167.186 6.15335 167.186 6.16579 167.186C6.19068 167.185 6.22773 167.184 6.2768 167.183C6.37489 167.182 6.52098 167.179 6.71375 167.175C7.09933 167.167 7.67172 167.155 8.42066 167.138C9.91856 167.104 12.1227 167.049 14.9512 166.967C20.6081 166.804 28.7626 166.533 38.7586 166.1C58.749 165.235 86.1118 163.725 115.596 161.146C145.075 158.567 176.702 154.917 205.214 149.768C233.679 144.627 259.214 137.962 276.401 129.285L274.599 125.715Z" fill="#EDE4E1"/>
</g>
<defs>
<filter id="filter0_d_55_87" x="0.0927734" y="0.772949" width="334.618" height="186.917" filterUnits="userSpaceOnUse" color-interpolation-filters="sRGB">
<feFlood flood-opacity="0" result="BackgroundImageFix"/>
<feColorMatrix in="SourceAlpha" type="matrix" values="0 0 0 0 0 0 0 0 0 0 0 0 0 0 0 0 0 0 127 0" result="hardAlpha"/>
<feOffset dy="4"/>
<feGaussianBlur stdDeviation="2"/>
<feComposite in2="hardAlpha" operator="out"/>
<feColorMatrix type="matrix" values="0 0 0 0 0 0 0 0 0 0 0 0 0 0 0 0 0 0 1 0"/>
<feBlend mode="normal" in2="BackgroundImageFix" result="effect1_dropShadow_55_87"/>
<feBlend mode="normal" in="SourceGraphic" in2="effect1_dropShadow_55_87" result="shape"/>
</filter>
</defs>
</svg>
