<svg width="345" height="155" viewBox="0 0 345 155" fill="none" xmlns="http://www.w3.org/2000/svg">
<g filter="url(#filter0_d_55_84)">
<path d="M265.918 35.1846L265.046 36.9847L265.918 35.1846ZM324.82 146.128C325.64 146.868 326.905 146.802 327.644 145.981L339.693 132.609C340.433 131.788 340.367 130.524 339.546 129.784C338.726 129.045 337.461 129.111 336.722 129.931L326.011 141.818L314.125 131.108C313.304 130.368 312.04 130.434 311.3 131.255C310.561 132.075 310.627 133.34 311.447 134.079L324.82 146.128ZM3.99994 1.99998C4.00415 3.99998 4.00471 3.99998 4.006 3.99998C4.00741 3.99997 4.00944 3.99997 4.01225 3.99997C4.01788 3.99995 4.02643 3.99994 4.03788 3.99992C4.06077 3.99989 4.09526 3.99985 4.1412 3.99982C4.23308 3.99975 4.37076 3.99972 4.55302 3.99984C4.91755 4.0001 5.46044 4.00101 6.17205 4.00362C7.59527 4.00884 9.69333 4.02086 12.3892 4.04807C17.7809 4.1025 25.5633 4.21772 35.1199 4.46085C54.2347 4.94716 80.4395 5.94502 108.805 7.99089C137.175 10.0371 167.679 13.1298 195.399 17.801C223.16 22.479 247.97 28.7152 265.046 36.9847L266.789 33.3846C249.185 24.8591 223.915 18.5497 196.064 13.8566C168.172 9.15659 137.532 6.05246 109.093 4.00126C80.6484 1.94971 54.3789 0.94953 35.2216 0.462146C25.6422 0.218429 17.8392 0.10289 12.4295 0.0482773C9.72467 0.0209653 7.61802 0.0088915 6.18671 0.00364548C5.47105 0.00102456 4.92422 0.000104986 4.55584 -0.000154215C4.37165 -0.00028048 4.23208 -0.0002508 4.13833 -0.00018483C4.09145 -0.000148358 4.05603 -0.000104638 4.03221 -7.03191e-05C4.0203 -5.31838e-05 4.0113 -4.36189e-05 4.00521 -2.8036e-05C4.00217 -2.37085e-05 3.9998 -2.16538e-05 3.99827 -2.02744e-05C3.99663 -1.22921e-05 3.99573 -1.24792e-05 3.99994 1.99998ZM265.046 36.9847C292.31 50.1881 307.127 76.9383 315.125 100.713C319.113 112.568 321.375 123.595 322.638 131.66C323.27 135.69 323.651 138.975 323.875 141.246C323.986 142.382 324.058 143.264 324.102 143.858C324.124 144.156 324.139 144.381 324.148 144.53C324.153 144.605 324.156 144.661 324.158 144.697C324.159 144.715 324.16 144.728 324.161 144.737C324.161 144.741 324.161 144.744 324.161 144.745C324.161 144.746 324.161 144.746 324.161 144.747C324.161 144.747 324.161 144.746 326.158 144.642C328.156 144.538 328.156 144.538 328.156 144.536C328.156 144.535 328.156 144.534 328.155 144.532C328.155 144.529 328.155 144.524 328.155 144.518C328.154 144.507 328.153 144.49 328.152 144.468C328.149 144.425 328.146 144.362 328.141 144.28C328.13 144.116 328.114 143.876 328.091 143.564C328.045 142.938 327.97 142.024 327.855 140.855C327.626 138.516 327.235 135.155 326.59 131.041C325.301 122.816 322.994 111.559 318.916 99.4372C310.782 75.2569 295.479 47.2781 266.789 33.3846L265.046 36.9847Z" fill="#EDE4E1"/>
</g>
<defs>
<filter id="filter0_d_55_84" x="-0.00317383" y="-0.000244141" width="344.211" height="154.643" filterUnits="userSpaceOnUse" color-interpolation-filters="sRGB">
<feFlood flood-opacity="0" result="BackgroundImageFix"/>
<feColorMatrix in="SourceAlpha" type="matrix" values="0 0 0 0 0 0 0 0 0 0 0 0 0 0 0 0 0 0 127 0" result="hardAlpha"/>
<feOffset dy="4"/>
<feGaussianBlur stdDeviation="2"/>
<feComposite in2="hardAlpha" operator="out"/>
<feColorMatrix type="matrix" values="0 0 0 0 0 0 0 0 0 0 0 0 0 0 0 0 0 0 1 0"/>
<feBlend mode="normal" in2="BackgroundImageFix" result="effect1_dropShadow_55_84"/>
<feBlend mode="normal" in="SourceGraphic" in2="effect1_dropShadow_55_84" result="shape"/>
</filter>
</defs>
</svg>
