<svg width="72" height="72" viewBox="0 0 72 72" fill="none" xmlns="http://www.w3.org/2000/svg">
<path fill-rule="evenodd" clip-rule="evenodd" d="M36 72C16.1168 72 0 55.8833 0 36C0 16.1168 16.1168 0 36 0C55.8833 0 72 16.1168 72 36C72 55.8833 55.8833 72 36 72ZM23.625 34.2855V38.3535H27.594V44.2215H23.625V48.0577H27.594V56.25H32.067V48.0577H41.067V44.2215H32.067V38.3535H37.7122C39.432 38.3679 41.1449 38.133 42.7972 37.656C44.3633 37.1903 45.7222 36.486 46.8787 35.5343C48.0352 34.587 48.9487 33.3968 49.6192 31.9613C50.2897 30.528 50.625 28.8428 50.625 26.9055C50.625 24.9705 50.31 23.3055 49.6755 21.9105C49.041 20.5155 48.1657 19.3612 47.0475 18.4523C45.9292 17.5433 44.5882 16.8638 43.0223 16.4182C41.329 15.956 39.5798 15.7311 37.8248 15.75H27.594V34.2855H23.625ZM37.8225 34.2855H32.067V19.818H37.8248C40.3943 19.818 42.417 20.3805 43.8885 21.5033C45.36 22.626 46.098 24.4283 46.098 26.9055C46.098 29.385 45.36 31.2345 43.8885 32.4562C42.417 33.6758 40.3943 34.2855 37.8248 34.2855H37.8225Z" fill="#EDE4E1"/>
</svg>
