<svg width="42" height="36" viewBox="0 0 42 36" fill="none" xmlns="http://www.w3.org/2000/svg">
<path d="M42 2.84211C42 3.59588 41.7542 4.31878 41.3166 4.85178C40.879 5.38477 40.2855 5.68421 39.6667 5.68421H2.33333C1.71449 5.68421 1.121 5.38477 0.683417 4.85178C0.245832 4.31878 0 3.59588 0 2.84211C0 2.08833 0.245832 1.36543 0.683417 0.832433C1.121 0.299435 1.71449 0 2.33333 0H39.6667C40.2855 0 40.879 0.299435 41.3166 0.832433C41.7542 1.36543 42 2.08833 42 2.84211ZM42 18C42 18.7538 41.7542 19.4767 41.3166 20.0097C40.879 20.5427 40.2855 20.8421 39.6667 20.8421H2.33333C1.71449 20.8421 1.121 20.5427 0.683417 20.0097C0.245832 19.4767 0 18.7538 0 18C0 17.2462 0.245832 16.5233 0.683417 15.9903C1.121 15.4573 1.71449 15.1579 2.33333 15.1579H39.6667C40.2855 15.1579 40.879 15.4573 41.3166 15.9903C41.7542 16.5233 42 17.2462 42 18ZM42 33.1579C42 33.9117 41.7542 34.6346 41.3166 35.1676C40.879 35.7006 40.2855 36 39.6667 36H2.33333C1.71449 36 1.121 35.7006 0.683417 35.1676C0.245832 34.6346 0 33.9117 0 33.1579C0 32.4041 0.245832 31.6812 0.683417 31.1482C1.121 30.6152 1.71449 30.3158 2.33333 30.3158H39.6667C40.2855 30.3158 40.879 30.6152 41.3166 31.1482C41.7542 31.6812 42 32.4041 42 33.1579Z" fill="white"/>
</svg>
