<svg width="51" height="72" viewBox="0 0 51 72" fill="none" xmlns="http://www.w3.org/2000/svg">
<path d="M25.5 0C18.737 0 12.251 2.65499 7.46878 7.38091C2.6866 12.1068 0 18.5165 0 25.2C0 33.768 4.335 41.292 10.9286 45.864V54C10.9286 54.9548 11.3124 55.8705 11.9955 56.5456C12.6787 57.2207 13.6053 57.6 14.5714 57.6H36.4286C37.3947 57.6 38.3213 57.2207 39.0045 56.5456C39.6876 55.8705 40.0714 54.9548 40.0714 54V45.864C46.665 41.292 51 33.768 51 25.2C51 18.5165 48.3134 12.1068 43.5312 7.38091C38.749 2.65499 32.263 0 25.5 0ZM14.5714 68.4C14.5714 69.3548 14.9552 70.2705 15.6384 70.9456C16.3216 71.6207 17.2481 72 18.2143 72H32.7857C33.7519 72 34.6784 71.6207 35.3616 70.9456C36.0448 70.2705 36.4286 69.3548 36.4286 68.4V64.8H14.5714V68.4Z" fill="#EDE4E1"/>
</svg>
