<svg width="70" height="70" viewBox="0 0 70 70" fill="none" xmlns="http://www.w3.org/2000/svg">
<path fill-rule="evenodd" clip-rule="evenodd" d="M69.378 34.6592C69.378 53.7998 53.846 69.3185 34.689 69.3185C15.532 69.3185 0 53.7998 0 34.6592C0 15.5187 15.532 0 34.689 0C53.846 0 69.378 15.5187 69.378 34.6592ZM35.932 25.5872C32.5585 26.988 25.8144 29.8907 15.7025 34.2924C14.0606 34.9452 13.1992 35.5835 13.1211 36.2073C12.9881 37.2645 14.3121 37.6804 16.1101 38.2436C16.3559 38.3216 16.6102 38.3995 16.8704 38.4862C18.6424 39.061 21.0244 39.7339 22.2617 39.7599C23.3862 39.783 24.6407 39.3209 26.0254 38.3735C35.4724 31.9991 40.3491 28.7787 40.6555 28.7094C40.8723 28.6603 41.1729 28.5968 41.3753 28.7787C41.5776 28.9578 41.5574 29.2986 41.5372 29.391C41.4042 29.9485 36.2182 34.769 33.5298 37.2645C32.6915 38.0414 32.0989 38.5931 31.9775 38.7201C31.7057 39.0003 31.4282 39.2689 31.1623 39.526C29.5146 41.1087 28.2831 42.2987 31.2317 44.2396C32.6481 45.1725 33.7813 45.9437 34.9116 46.712C36.1459 47.5525 37.3774 48.3901 38.9731 49.4356C39.3778 49.7013 39.7651 49.9757 40.1438 50.2443C41.5805 51.2697 42.8727 52.1881 44.4684 52.0437C45.3934 51.9571 46.3532 51.0877 46.8388 48.4912C47.9864 42.3507 50.247 29.0531 50.7702 23.5712C50.8021 23.116 50.7827 22.6587 50.7124 22.2079C50.6704 21.8438 50.4929 21.5087 50.2152 21.2692C49.8018 20.9313 49.1601 20.8591 48.871 20.8649C47.5673 20.888 45.5669 21.584 35.932 25.5872Z" fill="#EDE4E1"/>
</svg>
