<svg width="90" height="90" viewBox="0 0 90 90" fill="none" xmlns="http://www.w3.org/2000/svg">
<path fill-rule="evenodd" clip-rule="evenodd" d="M90 45C90 69.8512 69.8512 90 45 90C20.1488 90 0 69.8512 0 45C0 20.1488 20.1488 0 45 0C69.8512 0 90 20.1488 90 45ZM46.6125 33.2212C42.2363 35.04 33.4875 38.8088 20.37 44.5238C18.24 45.3713 17.1225 46.2 17.0212 47.01C16.8487 48.3825 18.5662 48.9225 20.8988 49.6538C21.2175 49.755 21.5475 49.8562 21.885 49.9687C24.1837 50.715 27.2738 51.5887 28.8787 51.6225C30.3375 51.6525 31.965 51.0525 33.7612 49.8225C46.0163 41.5462 52.3425 37.365 52.74 37.275C53.0212 37.2112 53.4112 37.1287 53.6737 37.365C53.9362 37.5975 53.91 38.04 53.8838 38.16C53.7113 38.8837 46.9837 45.1425 43.4963 48.3825C42.4087 49.3913 41.64 50.1075 41.4825 50.2725C41.13 50.6362 40.77 50.985 40.425 51.3188C38.2875 53.3737 36.69 54.9188 40.515 57.4388C42.3525 58.65 43.8225 59.6512 45.2887 60.6488C46.89 61.74 48.4875 62.8275 50.5575 64.185C51.0825 64.53 51.585 64.8862 52.0762 65.235C53.94 66.5662 55.6162 67.7587 57.6862 67.5712C58.8862 67.4587 60.1312 66.33 60.7612 62.9587C62.25 54.9862 65.1825 37.7213 65.8613 30.6038C65.9025 30.0128 65.8774 29.4191 65.7862 28.8337C65.7317 28.361 65.5015 27.926 65.1413 27.615C64.605 27.1762 63.7725 27.0825 63.3975 27.09C61.7062 27.12 59.1113 28.0237 46.6125 33.2212Z" fill="#EDE4E1"/>
</svg>
