<svg width="72" height="72" viewBox="0 0 72 72" fill="none" xmlns="http://www.w3.org/2000/svg">
<path d="M36 0C55.8828 0 72 16.1172 72 36C72 55.8828 55.8828 72 36 72C16.1172 72 0 55.8828 0 36C0 16.1172 16.1172 0 36 0ZM36 14.4C35.0452 14.4 34.1295 14.7793 33.4544 15.4544C32.7793 16.1295 32.4 17.0452 32.4 18V36C32.4002 36.9547 32.7796 37.8702 33.4548 38.5452L44.2548 49.3452C44.9338 50.001 45.8431 50.3638 46.787 50.3556C47.7309 50.3474 48.6339 49.9688 49.3013 49.3013C49.9688 48.6339 50.3474 47.7309 50.3556 46.787C50.3638 45.8431 50.001 44.9338 49.3452 44.2548L39.6 34.5096V18C39.6 17.0452 39.2207 16.1295 38.5456 15.4544C37.8705 14.7793 36.9548 14.4 36 14.4Z" fill="#EDE4E1"/>
</svg>
