<svg width="69" height="70" viewBox="0 0 69 70" fill="none" xmlns="http://www.w3.org/2000/svg">
<path d="M34.316 0.745361C15.3636 0.745361 0 16.0957 0 35.0319C0 53.9681 15.3636 69.3185 34.316 69.3185C53.2684 69.3185 68.632 53.9681 68.632 35.0319C68.632 16.0957 53.2684 0.745361 34.316 0.745361ZM47.5133 39.4285C47.5133 39.4285 50.5482 42.4214 51.2953 43.8107C51.3167 43.8393 51.3274 43.8678 51.3346 43.8821C51.6384 44.3929 51.7099 44.7893 51.5598 45.0857C51.3096 45.5786 50.4517 45.8215 50.1585 45.8429H44.7967C44.4249 45.8429 43.6456 45.7465 42.702 45.0964C41.9763 44.5893 41.2614 43.7571 40.5644 42.9464C39.5242 41.7392 38.6234 40.6963 37.7154 40.6963C37.6001 40.6961 37.4855 40.7142 37.3758 40.7499C36.6895 40.9713 35.8102 41.9499 35.8102 44.5571C35.8102 45.3715 35.1667 45.8393 34.7128 45.8393H32.257C31.4206 45.8393 27.0632 45.5465 23.2026 41.4785C18.477 36.4962 14.2233 26.5031 14.1875 26.4103C13.9194 25.7638 14.4735 25.4174 15.0776 25.4174H20.4931C21.2151 25.4174 21.4511 25.8567 21.6155 26.246C21.8085 26.6996 22.5163 28.5032 23.678 30.5318C25.5618 33.839 26.7164 35.1819 27.6422 35.1819C27.8158 35.1799 27.9863 35.1358 28.1391 35.0533C29.3473 34.3819 29.1221 30.0782 29.0685 29.1853C29.0685 29.0175 29.0649 27.2603 28.4465 26.4174C28.0033 25.8067 27.249 25.5745 26.7915 25.4888C26.9767 25.2335 27.2207 25.0265 27.5028 24.8852C28.3321 24.4709 29.8263 24.4102 31.3098 24.4102H32.1355C33.7441 24.4317 34.1587 24.5352 34.7414 24.6817C35.921 24.9638 35.946 25.7245 35.8423 28.3282C35.8102 29.0675 35.778 29.9032 35.778 30.889C35.778 31.1032 35.7673 31.3318 35.7673 31.5747C35.7315 32.8997 35.6886 34.4033 36.6252 35.0212C36.7473 35.0977 36.8885 35.1386 37.0327 35.1391C37.358 35.1391 38.3374 35.1391 40.9897 30.5925C41.8077 29.1291 42.5185 27.6084 43.1166 26.0424C43.1702 25.9495 43.3275 25.6638 43.5134 25.5531C43.6506 25.4832 43.8027 25.4477 43.9566 25.4495H50.323C51.0164 25.4495 51.4919 25.5531 51.5812 25.821C51.7385 26.246 51.5526 27.5424 48.6465 31.4747L47.3489 33.1854C44.7144 36.6355 44.7145 36.8105 47.5133 39.4285Z" fill="#EDE4E1"/>
</svg>
