<svg width="90" height="90" viewBox="0 0 90 90" fill="none" xmlns="http://www.w3.org/2000/svg">
<path d="M45 0C20.1469 0 0 20.1469 0 45C0 69.8531 20.1469 90 45 90C69.8531 90 90 69.8531 90 45C90 20.1469 69.8531 0 45 0ZM62.3063 50.7703C62.3063 50.7703 66.2859 54.6984 67.2656 56.5219C67.2938 56.5594 67.3078 56.5969 67.3172 56.6156C67.7156 57.2859 67.8094 57.8063 67.6125 58.1953C67.2844 58.8422 66.1594 59.1609 65.775 59.1891H58.7438C58.2563 59.1891 57.2344 59.0625 55.9969 58.2094C55.0453 57.5438 54.1078 56.4516 53.1938 55.3875C51.8297 53.8031 50.6484 52.4344 49.4578 52.4344C49.3066 52.4341 49.1563 52.4578 49.0125 52.5047C48.1125 52.7953 46.9594 54.0797 46.9594 57.5016C46.9594 58.5703 46.1156 59.1844 45.5203 59.1844H42.3C41.2031 59.1844 35.4891 58.8 30.4266 53.4609C24.2297 46.9219 18.6516 33.8062 18.6047 33.6844C18.2531 32.8359 18.9797 32.3812 19.7719 32.3812H26.8734C27.8203 32.3812 28.1297 32.9578 28.3453 33.4688C28.5984 34.0641 29.5266 36.4313 31.05 39.0938C33.5203 43.4344 35.0344 45.1969 36.2484 45.1969C36.4761 45.1942 36.6997 45.1363 36.9 45.0281C38.4844 44.1469 38.1891 38.4984 38.1188 37.3266C38.1188 37.1063 38.1141 34.8 37.3031 33.6937C36.7219 32.8922 35.7328 32.5875 35.1328 32.475C35.3757 32.1399 35.6956 31.8682 36.0656 31.6828C37.1531 31.1391 39.1125 31.0594 41.0578 31.0594H42.1406C44.25 31.0875 44.7938 31.2234 45.5578 31.4156C47.1047 31.7859 47.1375 32.7844 47.0016 36.2016C46.9594 37.1719 46.9172 38.2688 46.9172 39.5625C46.9172 39.8438 46.9031 40.1437 46.9031 40.4625C46.8563 42.2016 46.8 44.175 48.0281 44.9859C48.1883 45.0864 48.3734 45.14 48.5625 45.1406C48.9891 45.1406 50.2734 45.1406 53.7516 39.1734C54.8242 37.2528 55.7564 35.2569 56.5406 33.2016C56.6109 33.0797 56.8172 32.7047 57.0609 32.5594C57.2408 32.4677 57.4403 32.421 57.6422 32.4234H65.9906C66.9 32.4234 67.5234 32.5594 67.6406 32.9109C67.8469 33.4688 67.6031 35.1703 63.7922 40.3312L62.0906 42.5766C58.6359 47.1047 58.6359 47.3344 62.3063 50.7703Z" fill="#EDE4E1"/>
</svg>
